<svg data-v-423bf9ae="" xmlns="http://www.w3.org/2000/svg" viewBox="0 0 600 102" class="iconLeft"><!----><!----><!----><g data-v-423bf9ae="" id="4d9c29cb-e381-4f2c-8b26-d51abd3c2a2e" fill="black" transform="matrix(5.424954414367676,0,0,5.424954414367676,117.99542999267578,3.8763556480407715)"><path d="M1.48 14L2.58 14L2.58 3.78L1.48 3.78ZM4.35 8.83L8.64 3.78L7.32 3.78L3.35 8.54L3.35 9.21L7.55 14L8.93 14ZM12.88 6.58C11.16 6.58 9.94 7.56 9.84 9.02L10.84 9.02C10.89 8.18 11.69 7.49 12.84 7.49C14.13 7.49 14.88 8.16 14.88 9.67L14.88 9.94L12.61 9.93C10.70 9.93 9.55 10.79 9.55 12.01C9.55 13.27 10.60 14.14 11.94 14.14C13.23 14.14 14.25 13.55 15.01 12.96L15.22 14L15.90 14L15.90 9.67C15.90 7.70 14.81 6.58 12.88 6.58ZM10.58 12.00C10.58 11.19 11.30 10.79 12.63 10.79L14.88 10.79L14.88 12.11C14.13 12.70 13.17 13.22 12.15 13.22C11.30 13.22 10.58 12.78 10.58 12.00ZM18.84 5.10C19.28 5.10 19.64 4.73 19.64 4.27C19.64 3.85 19.28 3.50 18.84 3.50C18.40 3.50 18.05 3.85 18.05 4.27C18.05 4.73 18.40 5.10 18.84 5.10ZM19.33 6.72L18.28 6.72L18.28 14L19.33 14ZM22.88 3.08L21.83 3.08L21.83 14L22.88 14ZM25.93 5.10C26.36 5.10 26.73 4.73 26.73 4.27C26.73 3.85 26.36 3.50 25.93 3.50C25.48 3.50 25.13 3.85 25.13 4.27C25.13 4.73 25.48 5.10 25.93 5.10ZM26.42 6.72L25.37 6.72L25.37 14L26.42 14ZM31.98 6.58C29.93 6.58 28.35 8.19 28.35 10.33C28.35 12.50 29.89 14.14 31.99 14.14C33.66 14.14 34.92 13.06 35.15 11.76L34.16 11.76C33.95 12.66 33.10 13.23 31.99 13.23C30.55 13.23 29.48 12.15 29.37 10.63L35.20 10.63L35.29 10.54C35.48 8.41 33.99 6.58 31.98 6.58ZM29.41 9.74C29.67 8.39 30.73 7.48 31.96 7.48C33.25 7.48 34.15 8.48 34.29 9.76ZM48.34 14L49.50 14L45.42 3.78L44.10 3.78L39.90 14L41.03 14L42.04 11.49L47.38 11.49ZM42.45 10.47L44.76 4.72L46.98 10.47ZM54.43 6.58C53.66 6.58 52.79 6.97 51.86 7.76L51.67 6.72L50.93 6.72L50.93 14L51.97 14L51.97 8.75C52.88 7.98 53.62 7.59 54.24 7.59C54.56 7.59 54.84 7.64 55.08 7.73L55.20 6.71C54.99 6.64 54.74 6.58 54.43 6.58ZM60.35 6.58C59.16 6.58 58.24 6.99 57.61 7.78L57.61 3.08L56.62 3.08L56.62 14L57.33 14L57.54 12.87C58.17 13.69 59.07 14.14 60.34 14.14C62.33 14.14 63.95 12.46 63.95 10.33C63.95 8.23 62.31 6.58 60.35 6.58ZM60.27 13.23C59.00 13.23 58.16 12.61 57.65 11.61L57.65 9.10C58.13 8.13 58.98 7.49 60.27 7.49C61.66 7.49 62.89 8.72 62.89 10.33C62.89 11.96 61.67 13.23 60.27 13.23ZM68.94 6.58C66.89 6.58 65.31 8.19 65.31 10.33C65.31 12.50 66.85 14.14 68.95 14.14C70.62 14.14 71.88 13.06 72.11 11.76L71.12 11.76C70.91 12.66 70.06 13.23 68.95 13.23C67.51 13.23 66.44 12.15 66.33 10.63L72.16 10.63L72.25 10.54C72.44 8.41 70.95 6.58 68.94 6.58ZM66.37 9.74C66.63 8.39 67.69 7.48 68.92 7.48C70.21 7.48 71.11 8.48 71.25 9.76ZM76.89 6.58C75.17 6.58 73.95 7.56 73.85 9.02L74.84 9.02C74.90 8.18 75.70 7.49 76.85 7.49C78.13 7.49 78.89 8.16 78.89 9.67L78.89 9.94L76.62 9.93C74.70 9.93 73.56 10.79 73.56 12.01C73.56 13.27 74.61 14.14 75.95 14.14C77.24 14.14 78.26 13.55 79.02 12.96L79.23 14L79.91 14L79.91 9.67C79.91 7.70 78.82 6.58 76.89 6.58ZM74.59 12.00C74.59 11.19 75.31 10.79 76.64 10.79L78.89 10.79L78.89 12.11C78.13 12.70 77.18 13.22 76.16 13.22C75.31 13.22 74.59 12.78 74.59 12.00ZM87.64 6.72L87.64 12.18C86.70 12.82 85.75 13.22 84.92 13.22C83.83 13.22 83.23 12.60 83.23 11.42L83.23 6.72L82.18 6.72L82.18 11.47C82.18 13.22 83.12 14.14 84.66 14.14C85.74 14.14 86.69 13.78 87.77 13.06L87.95 14L88.69 14L88.69 6.72Z"></path></g><!----><g data-v-423bf9ae="" id="41f7fe70-2933-45d1-805d-9cf1919b9a4e" transform="matrix(1.0602433681488037,0,0,1.0602433681488037,0.9878154397010803,-1.7231143712997437)" stroke="none" fill="black"><path d="M99.279 18.508L83.756 2.982c-.923-.924-2.558-.924-3.48 0l-9.656 9.659c-.756-2.6-3.13-4.516-5.968-4.516H6.243A6.252 6.252 0 0 0 0 14.37v46.522a6.25 6.25 0 0 0 6.243 6.243h10.016l-3.005 3.006c-.01.009-.019.021-.029.029l-.055.055c-.078.077-.138.164-.202.248a2.409 2.409 0 0 0-.209.32 2.42 2.42 0 0 0-.146.304c-.012.031-.033.058-.043.09L4.807 94.471a2.464 2.464 0 0 0 3.113 3.115l23.287-7.762c.021-.007.039-.021.061-.029.167-.061.329-.137.48-.232.01-.006.02-.009.029-.015.142-.093.274-.198.395-.318L54.26 67.136h10.392c3.442 0 6.241-2.8 6.241-6.243V50.498l15.009-15.011c.147-.148.267-.317.37-.494L99.28 21.987a2.46 2.46 0 0 0-.001-3.479zM65.971 60.893c0 .729-.592 1.321-1.319 1.321h-5.47l6.789-6.792v5.471zm2.523-39.045l4.443 4.442-50.104 50.118-4.442-4.441 50.103-50.119zM4.921 60.893V14.37c0-.729.592-1.321 1.321-1.321h58.409a1.32 1.32 0 0 1 1.319 1.321v2.948L21.174 62.214H6.243a1.323 1.323 0 0 1-1.322-1.321zm6.112 30.466l4.946-14.839 9.893 9.893-14.839 4.946zm55.66-43.621s-.002 0-.002.002l-2.67 2.671-33.59 33.597-4.119-4.12L76.418 29.77l4.121 4.12-13.846 13.848zM84.1 30.205L72.055 18.166l9.961-9.962 12.043 12.043-9.959 9.958z"></path><path d="M22.885 27.229c0-.652-.259-1.277-.721-1.74l-5.917-5.916a2.462 2.462 0 0 0-3.48 3.482l4.176 4.174-4.176 4.176a2.459 2.459 0 0 0 0 3.48 2.455 2.455 0 0 0 3.48.001l5.917-5.916a2.464 2.464 0 0 0 .721-1.741zM26.482 35.606h7.048a2.461 2.461 0 0 0 0-4.923h-7.048a2.462 2.462 0 0 0 0 4.923z"></path></g><!----></svg>